<?xml version="1.0" encoding="UTF-8"?>
<svg version="1.1" viewBox="0 0 1897 2048" width="1280" height="1280" xmlns="http://www.w3.org/2000/svg">
<path transform="translate(1614,116)" d="m0 0h39l11 1-1 10-3 9-4 25-3 16-5 41-2 5-2 1-5 39-4 14-2 19-2 9-3 25-1 2h-2l-1 16-7 46-2 5-2 21-1 13-2 2-6 38-3 12-3 23-3 17v7l-2 5-2 4-1 6v10l3 2-1 5-4 5-4 9-7 51-2 13-2 7-3 26-5 24-5 28-1 18-4 9-3 25-3 14-2 16-3 11-1 1-2 31-3 3-4 23-4 28-4 27-3 25-2 3h-2l-1 18-5 31-3 19-5 35-4 8-4 32-4 26-4 5 1 10-4 20-3 13-4 29-3 25-2 2-4 29-5 25-5 29-2 15-4 17-7 15-3 5-2 9-4 6-5 13-3 1-4 9-4 5-9 12-11 12-16 15-11 8-11 7-16 9-15 6-14 3h-3l1 4-1 2h-6l-2-2-14 1-12 2-14 1-603 1h-75l-129-1-24-1-28-4v2h-9l-2-5-15-4-14-7-6-4-5-3-6-5-5-4-9-11-8-11-8-16-6-19-3-26v-29l3-39 11-65 3-14 2-12 1-15 3-1 3-27 6-37 4-23 2-12 2-6 4-28 6-39 3-4 3-29 3-10 4-31 3-19 6-20 1-21 3-3 2-22 2-9 2-4 2-18 2-11 2-4 3-30 3-11 1-13 4-16 6-34 6-36 3-22 3-16 2-17 4-13 2-21 2-5 1-1 2-15 1-15 2-4h2v-14l1-16 4-1 2-21 1-10v-6l3-3 1-14 2-10 1-18 3-2 1-16 2-3 2-10 1-2 3-24 2-8 2-21 3-8 2-4 1-23 2-2 4-26 3-13 3-21 4-23 2-14 4-16 3-22 3-17 3-22 2-4 3-21 1-1h531l1 4-3 32-2 2 1 6-1 6-3 2-3 30-3 5-1 7-1 18-3 5-2 24-5 22-6 48-2 7-3 9-4 28-4 26-2 15-7 35-2 1v12l-1 11-2 5-2 10-2 18-3 19-2 9-2 16-1 1-1 16-2 3 1 1v10l-5 1 1 4-2 7-2 23-2 5-7 47-3 19-4 18-9 56-3 15-1 17-2 2-3 30-4 1-2 26-5 29-2 15-2 10-3 21-3 12-6 47-1 13-1 4-4 1-1 8h2v-5h1v6h-4v45l5 5 1 3 7 1 23 1 9-3 9-7 7-8 3-6 2-17 2-1 5-34 4-20 5-35 1-11 4-13 2-18 3-15 2-11 3-22 2-4 1-21 2-7 2-1 2-16 2-17 3-12 4-25 5-33 3-14 9-60 2-7 3-24 2-4 4-33 3-3h2l-1-13 2-17 2-10 2-23 3-4 8-48 6-38 2-20 2-2 3-23 4-25 2-14 2-5 5-38 2-3 9-61 3-20 8-44 5-39 1-1zm-706 865 1 3zm-1 6m546 345v5l2-3v-2zm-1 5 1 4z" fill="#5F5D58"/>
<path transform="translate(108,1550)" d="m0 0 785 1-1 11-4 13-3 2-1 10v9l-2 2-2 6-1-4-2-1-1 12-2 13-1 11h-5l1 20-1 1h-5v10l-2 5-2 1-1 21-4 1-2 23-2 5-2-1v-3l-2 7v5l2-3-1 5-3 1-1 2-1 20-2 2h-3v13l2 2-6 2-1 15-4 3-2 12-3 14-2 7h-3l-1 16-4 12-2 17-3 8h-1v-6l-4 15-2 20-5 1v21l-5 1-1 14-3 2-2 18-2 1-4 16 103-1 2-12 3-8 2-7 2-3 3-21 4-3 1-17 4-4v-13l5-6v-15l5-1v-19l3-2 2-13 3-6 6-1 3 3v5l7 9 16 32 8 14 9 17 5 8 7 14 5 8 5 10 5 8 4 9 7 13 5 8 6 12 8 13 2 5 4 2 1 1v11l-1 1h-79l-117-1h-812l-1-7 3-12v-18h3l3-18 2-31 6 1 11 7 4 6 14 10 12 5 18 5 14 2h30l18-2 27-6 19-9 18-9 15-10 3-3 6-2 1-4 6-4 5-4 5-5 8-7 8-9 7-9 9-11 6-8 4-6 7-13 2-8 3-1 2-6 4-10 1-8 4-1 1-18 3-1 2-17 1-2h2l2-16 3-5 1-13 3-4 2-15 5-2v-9l6-23 1-10 2-2 3-12 3-7 1-18 4-1 4-22 3-12 3-1 1-20h-101v8l-1 6-4 2 1 6-1 1v15l-4 2-2 17-3 1v12l-1 3-5 1-1 14-1 7-4 2-4 21-1 11-4 2-1 16-2 8-1-3h-3l1 2v13l-5 1v16l-1 4-2 1-4 24-4 1v8l-2 5-4 9-4 5-6 8-9 10-11 9-6 1-3 5-12 1-1 4-2 1h-19l-1-3-6-1v-3l-12-4-3-5-5-7-5-10v-23l3-4 2-16 4-7 3-14 2-3 1-11 4-7 3-21 3-2 3-16 3-5 2-16 1-2h2l2-18 3-1v-12l4-4 4-21 4-14 3-8 2-11 3-3 1-7-13-1-69-1 1-11 3-14 2-16zm472 45-45 1-5 2-17 2-5 3-16 4-1 3-9 4-6 4-4 3-9 5-1 4-8 2v2h-2l1 6h-6v2h-2v3l-2 1-1 1-3-1-1 10h-7l-3 8-5 2-1 9-4 1-5 9-2 1-2 7-2 6-1 9-3-1-2 2v14l-4 1v59l2 3 3 9 6 10 9 12 4 5 6 4 4 5 10 6 5 2 5 3 17 1 16 2 3-4h28l1 7 4 1v14l-8 6-3 2-1 5-151 1-1 11-4-1v12l-3 2v10l1 1-3 2-1 14-4 1-1 7-3 4-2 17-3 9-1 14 1 1h159l14-2 19-6 8-4 13-7 9-6 10-8 12-10 7-8 9-10 8-10 9-14 3-10 4-3 4-17 2-5v-5h2l-1 2v6l2-4 3-11 1-17v-11l-1-8v-15l-5-11h-2l-2-10-5-3-1-4-4-6-4-3v2h-2l1-4-4-4-7-3v-5l-12-3h-4l-1-4-10-3-7-1-52-1-3-7-1-11 4-6 4-3 3-1h146l3-1 5-8 1-4 1-15 4-4 1-7-1-12h5l1-7v-9l4-1 2-15 3-10 2-10 2-2v-6l-1-1zm172 0-17 1-5 24-2 11-3 1-1 12 2-1-1 7v2h-2l1-7-2 4-3 10-2 2-1 18-4 2-2 18-2 10h-2l2 7-5 1-1 1-1 19-5 2v16l1 3-6 1v14l-5 2v18l-5 2-2 19h-2l-1 3v16l-5 1-3 20-2 5-1 13-4 1-1 16-2 4h-3l-1 9v10l-4 2v7l-2 1 1 3 2-1-1 4-4 2-1 3-1 16-4 2-3 15-2 5-1 9 1 1h102l2-2 6-26 4-15 3-9 2-14 3-3 2-10 1-10 3-5v-8l4-2 4-21 2-7 1-12 3-1 2-9 2-8 4-19 3-6 3-12 2-5 1-13 3-2 3-19v-6l4-1 2-4 5-29 3-9 3-13 2-3 9-35 8-25 3-12 3-7v-3l-7-1zm-472 27m-1 2 1 4 1-3zm0 6 1 3zm171 7 1 2zm-188 46-1 8 2-2v-6zm131 64 1 3zm0 5v9h1v-9zm-161 41 1 3 1-3zm0 4m-1 6m443 26 1 2z" fill="#5F5D58"/>
<path transform="translate(913,1550)" d="m0 0h414l-8 17-6 9-3 5-9 12-9 14-7 13-8 13-7 11-20 32-9 15-5 8-2 6-3 1-2 8-4 1-2 5-2 2v7l-4 1-3 9-3 2-2-1-2 5-3 8-3 2-2-1-1 6-4 8-7 10-6 11-6 9-9 16-7 11-6 9-6 11-8 11-8 14-5 8-3 6-2 1-2 7-4 1v8l-1 3-5 2-4 10-4 1-1 5-6 11-4 2-1 5-5 8-7 11-3 6h-2l1-21 5-11 1-17 3-1 3-11 3-5 1-14 1-3 3-3 3-21 3-1 2-12 2-2 1-4 1-15 4-1 2-15 3-6 7-30 2-9 2-3v-11l4-4h2l1-19 3-2 5-23 1-7 5-10 1-4v-9l1-3 2-1 6-25 3-11 6-24 3-9v-2h-104l-1 11-4 16-2 2-1 13-2 5h-3v19l-1 2h-5l-1 17-1 2h-2l1 5-1 10-4 2-1 10-4 18-3 10-3 11-3 2-5-2-3-5-7-15-3-7-5-8-4-10-10-16-18-36-11-18-10-20-6-8-8-16-8-14-9-13-3-12z" fill="#5F5D58"/>
<path transform="translate(1267,1835)" d="m0 0 2 2 2 47 3 9v10l-1 3 1 5 2 42 1 11 1 3v14h68l-2 17-5 24-2 9-1 1h-58l-224-1 2-20 3-7 2-8 3-15 110-1 3-5 3-3 1-5 5-4v-5l4-5 2-3h2l2-6 7-9 2-3 1-7 5-1 2-7 8-13 4-8 4-5 9-16 5-7 4-8 4-7 10-16z" fill="#5F5D58"/>
<path transform="translate(1354,1550)" d="m0 0h24l40 1v18l-2 7h-2l1 7-5 27-1 1-3 28-1 4-2 1-2 14v5l2 6-5 4 1 9-3 1-1 5-1 17-2 2v20l-3 1v15l-3 2-2 31-1 2h-2l-2 11-1 16h-3l-5-13-1-11 1-12-1-4-1-47-3-2-2-53h-3v-8l1-1v-13l-4-50-2-4z" fill="#5F5D58"/>
<path transform="translate(1791,29)" d="m0 0 17 1 15 4 14 7 9 7 8 7 8 10 8 16 4 14v31l-4 13-8 16-8 10-12 11-14 8-10 4-9 2-9 1h-13l-12-2-16-6-10-6-11-9-9-10-8-14-5-13-2-10v-22l3-14 5-12 7-11 9-11 13-10 14-7 14-4zm-7 14-13 3-12 6-10 8-9 9-8 14-4 11-1 19 2 15 5 13 7 11 11 11 10 7 13 5 13 3h12l16-4 16-8 10-8 7-8 8-14 4-14 1-7v-11l-3-16-8-16-9-10-10-9-14-7-7-2-8-1z" fill="#696763"/>
<path transform="translate(1614,116)" d="m0 0h39l11 1-1 10-3 9-4 25-3 16-5 41-2 5-2 1-5 39-4 14-2 19-2 9-3 25-1 2h-2l-1 16-7 46-2 5-2 21-1 13-2 2-6 38-3 12-3 23-3 17v7l-2 5-2 4-1 6v10l3 2-1 5-4 5-4 9-7 51-2 13-2 7-3 26-5 24-5 28-1 18-4 9-3 25-3 14-2 16-3 11-1 1-2 31-3 3-4 23-4 28-4 27-3 25-2 3h-2l-1 18-5 31-3 19-5 35-4 8-4 32-4 26-5 5 1-6 8-49 2-10 5-24 7-47 4-20 2-16 4-20 7-48 7-39 2-9 3-26 3-9 3-18 2-13 1-2 2-23 5-12 1-17 6-36 5-26 3-22 7-47 4-22 6-10 1-4-3-4 2-16 3-5v-9l3-17 5-30 8-41 6-42 6-35 2-11 1-15 4-12 3-25 3-19 2-12 3-12 4-29 3-12 8-51 2-6 3-23 4-15-536 1-8 52-6 31-2 17-3 20-8 45-4 25-3 17-7 40-4 25-3 24-10 60-4 23-3 14-4 34-1 16-4 4h-2l-1 14-3 21-2 13-3 20-1 1-4 29-6 36-4 23-6 40-6 35-2 12-2 2 1-16 2-17 3-12 4-25 5-33 3-14 9-60 2-7 3-24 2-4 4-33 3-3h2l-1-13 2-17 2-10 2-23 3-4 8-48 6-38 2-20 2-2 3-23 4-25 2-14 2-5 5-38 2-3 9-61 3-20 8-44 5-39 1-1z" fill="#FEFEFE"/>
<path transform="translate(459,482)" d="m0 0 1 2-5 37-2 4h-2v15l-1 12-2 3-4 32-2 6-4 28-2 7h-2v13l-4 21-3 22-2 12-4 22-6 36-2 10-1 1-4 27-1 6-3 25-3 9-4 26-2 4-4 30-1 2-1 17-6 22-1 1-7 53-4 10-2 24-3 9-7 45-3 23-2 3h-2v15l-8 48-2 3-3 27-2 6-1 2v13l-3 14-2 8-4 27-6 32-2 10-3 35v34l2 22 8 24 7 14 12 16 7 7 13 9 14 8 24 8 26 4 19 2h821l18-2 25-3v2h-2v2h4l-1-5 22-6 11-5 16-8 19-12 13-12 11-10 9-11 12-17 3-6 3-5 8-18 8-21 1-2 2-16 2-4h3l1-14 4-21 3-18 5-26 5-30 7-47 4-21 2-17h2l1 9-4 20-3 13-4 29-3 25-2 2-4 29-5 25-5 29-2 15-4 17-7 15-3 5-2 9-4 6-5 13-3 1-4 9-4 5-9 12-11 12-16 15-11 8-11 7-16 9-15 6-14 3h-3l1 4-1 2h-6l-2-2-14 1-12 2-14 1-603 1h-75l-129-1-24-1-28-4v2h-9l-2-5-15-4-14-7-6-4-5-3-6-5-5-4-9-11-8-11-8-16-6-19-3-26v-29l3-39 11-65 3-14 2-12 1-15 3-1 3-27 6-37 4-23 2-12 2-6 4-28 6-39 3-4 3-29 3-10 4-31 3-19 6-20 1-21 3-3 2-22 2-9 2-4 2-18 2-11 2-4 3-30 3-11 1-13 4-16 6-34 6-36 3-22 3-16 2-17 4-13 2-21 2-5 1-1 2-15 1-15 2-4h2v-14l1-16 4-1 2-21 1-10v-6zm994 850v5l2-3v-2zm-1 5 1 4z" fill="#FEFEFE"/>
<path transform="translate(522,117)" d="m0 0h531l1 4-3 32-2 2 1 6-1 6-3 2-3 30-3 5-1 7-1 18-3 5-2 24-5 22-6 48-2 7-3 9-4 28-4 26-2 15-7 35-2 1v12l-1 11-2 5-2 10-2 18-3 19-2 9-2 16-1 1-1 16-2 3 1 1v10l-5 1 1 4-2 7-2 23-2 5-7 47-3 19-4 18-9 56-3 15-1 17-2 2-3 30-4 1-2 26-5 29-2 15-2 10-3 21-3 12-6 47-1 13-1 4-4 1-1 8h2v-5h1v6h-4v45l5 5 1 3 7 1 23 1 9-3 9-7 7-8 3-6 2-17 2-1 5-34 4-20 5-35 1-11 4-13 2-18 3-15 2-11 3-22 2-4 1-21 2-7 3-1-2 8-1 17-3 17-3 23-2 5-5 35-2 9-3 22-6 36-11 59-6 9-8 9-9 6-8 2h-15l-13-2-8-7-3-5-1-4v-19l2-20 2-11 2-3v-8l1-4 1-11 9-49 2-10 3-20 2-8 3-23 3-15 2-23 2-5h2l1-17 3-13 1-1 1-19 3-14 7-43 6-31 2-10 8-55 3-13 2-18 2-10 3-1-1-8 2-7 1-13 2-9 2-17 5-26 3-20 2-6 2-25 2-1 5-30 3-16 4-29 5-35 2-2 2-19 5-30 5-25 1-2 2-21 3-12 2-21 3-6 2-20 2-10 1-2 2-14 1-2 3-24 1-6h-99l-429-1-4 24-3 16-8 51-3 11-9 59-5 26-4 18-1 19-4 8-1 4-2 23-5 32-2 6-3 12-1 12-1 1-2 16-2 5-2 15-1 5h-1v-14l2-10 1-18 3-2 1-16 2-3 2-10 1-2 3-24 2-8 2-21 3-8 2-4 1-23 2-2 4-26 3-13 3-21 4-23 2-14 4-16 3-22 3-17 3-22 2-4 3-21zm386 864 1 3z" fill="#FEFEFE"/>
<path transform="translate(388,1595)" d="m0 0h2v15l-8 30-3 12-2 2-3 19-6 19-10 42-2 3-3 15-2 3-3 15-4 18-3 2-2 15-3 5-2 17-4 1-1 9-6 16-3 1-1 6-9 17-12 16-18 22-10 10-8 7-16 13-21 14-21 10-14 7-6 2-11 2-16 3-12 1h-19l-8 1-7-2h-8l-12-3-15-5-13-7-10-8-9-8-5-4-1 7-2 25-3 15-3 3 1 5-1 15-2 1-1 9 473-1h532l-2-6-2-4h-2l-2-3v-5l3 3 2 5 4 2 1 1v11l-1 1h-79l-117-1h-812l-1-7 3-12v-18h3l3-18 2-31 6 1 11 7 4 6 14 10 12 5 18 5 14 2h30l18-2 27-6 19-9 18-9 15-10 3-3 6-2 1-4 6-4 5-4 5-5 8-7 8-9 7-9 9-11 6-8 4-6 7-13 2-8 3-1 2-6 4-10 1-8 4-1 1-18 3-1 2-17 1-2h2l2-16 3-5 1-13 3-4 2-15 5-2v-9l6-23 1-10 2-2 3-12 3-7 1-18 4-1 4-22 3-12 3-1z" fill="#FEFEFE"/>
<path transform="translate(1763,67)" d="m0 0h38l10 4 8 7 5 8 2 9-1 10-3 9-3 4h-2l-1 3-7 4-3 2 10 12 7 10 1 5h-13l-5-4-8-11-5-7v-2l-3-1h-13l-1 24-1 1-11-1-1-1zm22 12-9 1v35h26l8-7 3-7-1-10-4-6-4-4-11-2z" fill="#7B7A76"/>
<path transform="translate(108,1550)" d="m0 0 785 1-1 11-4 13-3 1 4-18 1-5h-782l-2 20-3 13-1 8h77l5 3-1 7-3 6-11 40-3 14-1 1-2 13-4 2v8l-3 10-2 4-2 15-3 8-3 12-3 7-2 15-3 4-2 15-1 2h-2l-1 11-3 7h-2l-3 21-1 2v21l5 12 7 8 17 8 1 4h11l8-4 3 1h-2l-1 4-2 1h-19l-1-3-6-1v-3l-12-4-3-5-5-7-5-10v-23l3-4 2-16 4-7 3-14 2-3 1-11 4-7 3-21 3-2 3-16 3-5 2-16 1-2h2l2-18 3-1v-12l4-4 4-21 4-14 3-8 2-11 3-3 1-7-13-1-69-1 1-11 3-14 2-16z" fill="#FEFEFE"/>
<path transform="translate(459,482)" d="m0 0 1 2-5 37-2 4h-2v15l-1 12-2 3-4 32-2 6-4 28-2 7h-2v13l-4 21-3 22-2 12-4 22-6 36-2 10-1 1-4 27-1 6-3 25-3 9-4 26-2 4-4 30-1 2-1 17-6 22-1 1-7 53-4 10-2 24-3 9-7 45-3 23-2 3h-2v15l-8 48-2 3-3 27-2 6-1 2v13l-3 14-2 8-4 27-6 32-2 10-3 35v34l2 22 8 24 7 14 12 16 7 7 13 9 14 8 24 8 19 3 1 2h-9l-5-1v2h-9l-2-5-15-4-14-7-6-4-5-3-6-5-5-4-9-11-8-11-8-16-6-19-3-26v-29l3-39 11-65 3-14 2-12 1-15 3-1 3-27 6-37 4-23 2-12 2-6 4-28 6-39 3-4 3-29 3-10 4-31 3-19 6-20 1-21 3-3 2-22 2-9 2-4 2-18 2-11 2-4 3-30 3-11 1-13 4-16 6-34 6-36 3-22 3-16 2-17 4-13 2-21 2-5 1-1 2-15 1-15 2-4h2v-14l1-16 4-1 2-21 1-10v-6z" fill="#FEFEFE"/>
<path transform="translate(1267,1835)" d="m0 0 2 2 2 47 3 9v10l-1 3 1 5 2 42 1 11 1 3v14h68l-2 17-5 24-2 9-1 1h-58l-224-1 2-20 3-7 2-8 3-15 110-1 3-5 3-3 1-5 5-4v-5l4-5 2-3h2l2-6 7-9 2-3 1-7 5-1 2-7 8-13 4-8 4-5 9-16 5-7 4-8 4-7 10-16zm-3 4-4 4-8 13-21 35-8 13-10 18-2 3-3 1-3 9-7 10-9 14-2 6-4 4-3 6-4 5v2h-45l-65 1-6 27-3 13v5h277l2-5 2-12 2-2 3-26h-66l-1-15-2-16-1-22-1-14-1-13 1-1v-9l-3-7-2-41-1-6z" fill="#FEFEFE"/>
<path transform="translate(913,1550)" d="m0 0h414l-8 17-6 9-3 5-9 12-9 14-7 13-8 13-7 11-4 4 2-6 7-11 10-17 6-11 7-10 11-16 9-15 4-10-34 1h-371l4 11 10 17 8 14 3 5 3 7 7 11 8 16 14 24 8 16 9 17 9 15 4 10 6 9 7 16 7 4 4-16 4-13 8-34 2-6 2-12h1l-1 17-1 2h-2l1 5-1 10-4 2-1 10-4 18-3 10-3 11-3 2-5-2-3-5-7-15-3-7-5-8-4-10-10-16-18-36-11-18-10-20-6-8-8-16-8-14-9-13-3-12z" fill="#FEFEFE"/>
<path transform="translate(737,1594)" d="m0 0h100l6 1-1 9-2 3-4 18-12 42-3 14-3 3-8 37-3 15-3 4-6 28-5 15-3 12-3 7-3 16-2 4-2 12-4 11-4 16-3 16-3 3-2 10-5 23-4 14-10 36-4 19-39 1h-68l-1-1v-13l4-10 2-7h1l-1 11-3 8-1 9h102l3-9 4-18 4-15 3-9 2-14 3-3 2-10 1-10 3-5v-8l2-2h2l4-21 2-7 1-12 4-1 2-15 2-5 3-16 3-6 3-12 2-5 1-13 4-2 1-12 2-13 4-2 7-35 3-11 2-8 2-3 9-35 8-25 3-12 4-10h-107z" fill="#FEFEFE"/>
<path transform="translate(1354,1550)" d="m0 0h24l40 1v18l-2 7h-2l1 7-5 27-1 1-3 28-1 4-2 1-2 14v5l2 6-5 4 1 9-3 1-1 5-1 17-2 2v20l-3 1v15l-3 2-2 31-1 2h-2l-2 11-1 16h-3l-5-13-1-11 1-12-1-4-1-47-3-2-2-53h-3v-8l1-1v-13l-4-50-2-4zm3 2v32l3 16 2 20 1 18 1 7v16l1 4 2 49 2 2 1 5 3 71 3-3 3-10 3-6 2-23 2-7 2-16 1-1 2-20 2-11 2-13 2-11 2-1v-11l2-14 2-4 9-63 3-6 1-7v-12l-3-1z" fill="#FEFEFE"/>
<path transform="translate(550,1594)" d="m0 0h144l2 1v8l-3 7-2 12-2 3-2 14-3 3-3 15-2 7-3 13-2 4-3 17-5 9-5 2h-145l-7 4-2 5v8l3 6 2 1h44l16 4 8 3 5 3 8 2 2 1v2h2v3l4 2 7 7 2 4-6-1-1-5-6-4-4-2 1-5-12-2-5-1v-3l-10-3-7-1-52-1-4-8-1-11 4-6 5-4 3-1h149l2-5 3-7 1-15 4-4 1-7v-12h5l1-16 3-1 2-15 3-10 2-10 2-2v-6h-113l-45 1-5 2-17 2-5 3-16 4-1 2 2 1-9 3-8 5-4 3-6 3-2-1 16-11 9-5 5-3 15-4 5-3 17-2 3-1z" fill="#FEFEFE"/>
<path transform="translate(621,1780)" d="m0 0 2 3 4 5 4 11 1 17v19l-1 15-5 15-1 2h-3l-1 9-3 9-12 21-12 16-12 13-10 10-10 8-11 8-13 8-15 7-12 3-6 3-20 3h-7l-3-1-146-1 1-15 5-17 2-10 2-1-2 17-3 9-1 14h159l14-2 19-6 8-4 13-7 9-6 10-8 11-9 7-8 9-10 8-10 9-14 3-10 4-3 4-17 2-5 1-5h2v4l3-11 1-17v-11l-1-8v-15l-4-10-3-3z" fill="#FEFEFE"/>
<path transform="translate(1168,1595)" d="m0 0 3 1-2 9-4 15-7 30-4 17-2 4-1 11-5 10-7 30-3 5-3 17-2 3h-2l-2 15-5 22-12 42-4 17-7 21-4 18-3 7-2 12-5 15-2 5-4 19-2 4v9l12-18 1 3-5 9-7 10-4 8h-2l1-21 5-11 1-17 3-1 3-11 3-5 1-14 1-3 3-3 3-21 3-1 2-12 2-2 1-4 1-15 4-1 2-15 3-6 7-30 2-9 2-3v-11l4-4h2l1-19 3-2 5-23 1-7 5-10 1-4v-9l1-3 2-1 6-25 3-11 6-24 3-9z" fill="#FEFEFE"/>
<path transform="translate(337,1196)" d="m0 0 1 3-2 3v13l-3 14-2 8-4 27-6 32-2 10-3 35v34l2 22 8 24 7 14 12 16 7 7 13 9 14 8 24 8 19 3 1 2h-9l-5-1v2h-9l-2-5-15-4-14-7-6-4-5-3-6-5-5-4-9-11-8-11-8-16-6-19-3-26v-29l3-39 11-65 3-14 2-12 1-15 3-1z" fill="#FEFEFE"/>
<path transform="translate(911,1870)" d="m0 0h2l-3 18-3 3-2 15-2 5-2 16-4 1-1 11-6 23-4 13-2 7-39 1-67 1-2-1 3-16 6-20h1v11l-1 6-2 1-4 16 103-1 2-12 3-8 2-7 2-3 3-21 4-3 1-17 4-4v-13l5-6v-15z" fill="#FEFEFE"/>
<path transform="translate(923,1829)" d="m0 0 6 1 1 7 7 9 16 32 8 14 9 17 5 8 7 14 5 8 5 10 5 8 4 9 7 13 5 8 6 12 4 6v2l-4-2-4-8-13-23-8-16-12-22-13-23-10-19-9-16-11-21-10-18-3-5-1-2-2 3-2 13-4 4-3 18h-1v-19l3-2 2-13 3-6z" fill="#FEFEFE"/>
<path transform="translate(1791,29)" d="m0 0 17 1 15 4 14 7 9 7 1 2-4-2-11-7-11-5-17-4h-21l-19 5-15 8-11 9-11 15-7 15-3 12-1 8v12l3 16 5 13 6 10 5 6-1 2-7-8-8-16-4-12-1-6v-22l3-14 5-12 7-11 9-11 13-10 14-7 14-4z" fill="#FEFEFE"/>
<path transform="translate(1832,53)" d="m0 0 5 2 13 13 8 14 4 12 1 6v20l-4 15-8 15-11 12-10 7-12 6-17 4h-15l-16-4-14-7-10-9-5-5 1-2 10 10 10 7 13 5 13 3h12l16-4 16-8 10-8 8-10 7-14 3-11 1-7v-11l-3-16-8-16-9-10-9-8z" fill="#FEFEFE"/>
<path transform="translate(507,1871)" d="m0 0h2l1 4-2 2h-151v-1l8-1 139-1 3-1z" fill="#FEFEFE"/>
<path transform="translate(319,1407)" d="m0 0h2l8 21 9 14 8 10 10 9 14 9 12 6 21 7 19 3 1 2h-9l-5-1v2h-9l-2-5-15-4-14-7-6-4-5-3-6-5-5-4-9-11-8-11-8-16-3-9z" fill="#FEFEFE"/>
<path transform="translate(240,1765)" d="m0 0h1v15l-1 4-2 1-4 24-4 1v8l-2 5-4 9-4 5-6 8-9 10-11 9-3 1-3-2 12-7 9-8 8-11 5-8 4-12 1-6 2-4 2-13 2 1 1-2-2-1 6-17z" fill="#FEFEFE"/>
<path transform="translate(400,1709)" d="m0 0h1l1 12-1 2-3 1v59l2 3 3 9 6 10 9 12 3 3-1 2-8-8-10-15-5-11-2-6-2-21v-8h-1v-6l1-2 1-14zm-7 38 1 3z" fill="#FEFEFE"/>
<path transform="translate(1198,1755)" d="m0 0 1 3-5 10-7 10-6 11-6 9-9 16-7 11-6 9-6 11-8 11-8 14-5 8-3 6-3 1 2-6 9-15 13-20 9-15 12-19 8-14 9-14 12-20z" fill="#FEFEFE"/>
<path transform="translate(1789,41)" d="m0 0h10l14 2 13 5 6 4-2 1-12-6-7-2-8-1h-19l-13 3-12 6-10 8-8 8-8 14-4 11-1 19 2 15 5 13 3 5-1 2-6-10-4-12-1-5v-23l3-11 8-16 9-10 7-7 14-8 14-4z" fill="#FEFEFE"/>
<path transform="translate(280,1613)" d="m0 0h2l1 5-1 1v15l-4 2-2 17-3 1v12l-1 3-5 1-1 14-1 7-5 2 1-4h1v-8l5-14 3-13 2-2 3-16 1-2 2-13zm0 9m-1 2 1 4 1-3zm0 6 1 3z" fill="#FEFEFE"/>
<path transform="translate(724,1633)" d="m0 0h1v10l2-7h1l-1 10-2 6h-2v-3l-3 10-2 2-1 18-4 2-2 18-3 10-1 1h1v6l-6 2 4-17 2-6 2-13 4-5 1-14 6-15z" fill="#FEFEFE"/>
<path transform="translate(487,1840)" d="m0 0h26l2 1 2 7 3 1 1 2v12l-9 7-2-1 7-7 1-2-1-9-6-8-4-1h-20l-2 4h-10l-24-3v-1h17l16 2z" fill="#FEFEFE"/>
<path transform="translate(670,1835)" d="m0 0h1l-1 14-2 9-1 1-2 13-3 1-1 16-2 5-4-2 2-7 2-11 4-11 5-19z" fill="#FEFEFE"/>
<path transform="translate(422,1666)" d="m0 0 1 4-1 5-4 2-5 9h-2v6l-3 7-2 9-3-1 2-11 8-16 5-7h2z" fill="#FEFEFE"/>
<path transform="translate(680,1796)" d="m0 0 2 3-3 15h-2v17l-3 3h-3l3-19 3-4zm-6 33 1 2z" fill="#FEFEFE"/>
<path transform="translate(1063,1598)" d="m0 0 1 4-5 21-2 2-1 13-2 5h-3l4-19 6-20z" fill="#FEFEFE"/>
<path transform="translate(1808,131)" d="m0 0 5 4 10 14 1 5h-13l-5-4-8-11-2-5 5 5 9 12 12 1-6-9-8-10z" fill="#FEFEFE"/>
<path transform="translate(816,1831)" d="m0 0h1v10l-4 12-2 17-3 8h-1v-6-4l5-21 2-4z" fill="#FEFEFE"/>
<path transform="translate(734,1596)" d="m0 0h1l-1 9-5 27h-4l5-25z" fill="#FEFEFE"/>
<path transform="translate(1265,1648)" d="m0 0 1 2-11 18-8 13-7 11-2 1 2-5 21-35z" fill="#FEFEFE"/>
<path transform="translate(348,1901)" d="m0 0h1v10l2 1-3 2-1 14-5 1 5-25z" fill="#FEFEFE"/>
<path transform="translate(398,1482)" d="m0 0 16 3 8 1 1 2h-9l-5-1v2h-9z" fill="#EEEEED"/>
<path transform="translate(805,1871)" d="m0 0 1 4-3 12-2 20-5 1 6-26z" fill="#FEFEFE"/>
<path transform="translate(852,1694)" d="m0 0h1v14l-1 9-2 5-2-1-1-5 4-20z" fill="#FEFEFE"/>
<path transform="translate(259,1693)" d="m0 0 1 3-3 18-1 11-4 1 2-14 3-13z" fill="#FEFEFE"/>
<path transform="translate(883,1577)" d="m0 0h1v19l-2 2-2 6-1-4-1-2h2l1-17z" fill="#FEFEFE"/>
<path transform="translate(826,1792)" d="m0 0h2l-2 12-3 14-2 7-3-1 4-16z" fill="#FEFEFE"/>
<path transform="translate(1107,1906)" d="m0 0 1 3-3 7-4 1-1 5-6 11-4 2 2-5 9-15 4-5z" fill="#FEFEFE"/>
<path transform="translate(875,1604)" d="m0 0h1v7l-2 13-1 11h-5l6-26z" fill="#FEFEFE"/>
<path transform="translate(421,1822)" d="m0 0 5 2 5 6 10 6 5 2 5 4-5-1-10-5-8-6-7-7z" fill="#FEFEFE"/>
<path transform="translate(795,1908)" d="m0 0h1v21l-5 1 3-19z" fill="#FEFEFE"/>
<path transform="translate(841,1735)" d="m0 0h1v20l-2 2h-3l3-19z" fill="#FEFEFE"/>
<path transform="translate(648,1914)" d="m0 0h2l1 7-3 1 1 2h2l-1 5-4 1v-8z" fill="#FEFEFE"/>
<path transform="translate(451,1634)" d="m0 0 3 4-1 3-6-1v2h-2l-1 7-4-2v-2h2l2-4 5-6zm-1 3 1 2z" fill="#FEFEFE"/>
<path transform="translate(685,1775)" d="m0 0 2 2v16l-3 2-3-1h2z" fill="#FEFEFE"/>
<path transform="translate(250,1727)" d="m0 0h1v16l-2 8-1-3-3-1 3-7z" fill="#FEFEFE"/>
<path transform="translate(1049,1645)" d="m0 0h1l1 8v9l-1 2h-5l2-6z" fill="#FEFEFE"/>
<path transform="translate(701,1718)" d="m0 0h1v19l-3 2-3-1 3-1 1-16z" fill="#FEFEFE"/>
<path transform="translate(790,1930)" d="m0 0h1l-1 14-3 1-1-7 3-7z" fill="#FEFEFE"/>
<path transform="translate(695,1739)" d="m0 0h1l1 19-6 1 2-2 1-17z" fill="#FEFEFE"/>
<path transform="translate(857,1674)" d="m0 0h1v19l-5 1z" fill="#FEFEFE"/>
<path transform="translate(867,1637)" d="m0 0h1l1 18-1 1h-5l2-6z" fill="#FEFEFE"/>
<path transform="translate(645,1930)" d="m0 0 1 3-1 16-4 2 3-19z" fill="#FEFEFE"/>
<path transform="translate(654,1893)" d="m0 0 1 4v15l-4 1 2-17z" fill="#FEFEFE"/>
<path transform="translate(836,1757)" d="m0 0h1v13l2 2-7 2 3-15z" fill="#FEFEFE"/>
<path transform="translate(1114,1893)" d="m0 0 1 3-1 8-6 2 2-5z" fill="#FEFEFE"/>
<path transform="translate(831,1774)" d="m0 0h1l1 7-1 8-4 1z" fill="#FEFEFE"/>
<path transform="translate(690,1759)" d="m0 0 2 4v10l-3 2-3-1 3-1z" fill="#FEFEFE"/>
<path transform="translate(244,1750)" d="m0 0h2v13h-5l2-1z" fill="#FEFEFE"/>
<path transform="translate(1229,1706)" d="m0 0 1 3-1 5-4 1-2 5-2 1 2-5z" fill="#FEFEFE"/>
<path transform="translate(438,1647)" d="m0 0 1 3-1 6-3 1-3-2z" fill="#FEFEFE"/>
<path transform="translate(286,1596)" d="m0 0h1v8l-1 6-4 1 3-12z" fill="#FEFEFE"/>
<path transform="translate(1214,1731)" d="m0 0h1v6l-4 4-2-2z" fill="#FEFEFE"/>
<path transform="translate(186,1865)" d="m0 0 1 3-2 2-8 1-2-2 1-1 8-1z" fill="#FEFEFE"/>
<path transform="translate(862,1657)" d="m0 0h1v9l-2 5h-2l2-10z" fill="#FEFEFE"/>
<path transform="translate(356,1877)" d="m0 0h1v9l-1 2-3-1z" fill="#FEFEFE"/>
<path transform="translate(1206,1743)" d="m0 0 1 2-3 8-3 2v-3l4-8z" fill="#FEFEFE"/>
<path transform="translate(611,1770)" d="m0 0h2l1 4h-2z" fill="#FEFEFE"/>
<path transform="translate(806,1879)" d="m0 0 1 4z" fill="#FEFEFE"/>
<path transform="translate(622,1789)" d="m0 0 2 2h-2z" fill="#FEFEFE"/>
<path transform="translate(259,1708)" d="m0 0" fill="#FEFEFE"/>
<path transform="translate(1052,1645)" d="m0 0" fill="#FEFEFE"/>
<path transform="translate(464,1627)" d="m0 0 1 2-2-1z" fill="#FEFEFE"/>
<path transform="translate(657,1895)" d="m0 0" fill="#FEFEFE"/>
<path transform="translate(767,1856)" d="m0 0" fill="#FEFEFE"/>
<path transform="translate(838,1762)" d="m0 0" fill="#FEFEFE"/>
<path transform="translate(1624,353)" d="m0 0" fill="#FEFEFE"/>
<path transform="translate(805,1883)" d="m0 0" fill="#FEFEFE"/>
<path transform="translate(323,1839)" d="m0 0" fill="#FEFEFE"/>
</svg>
